<mxfile host="app.diagrams.net" modified="2023-10-27T16:34:54.497Z" agent="Mozilla/5.0 (Windows NT 10.0; Win64; x64) AppleWebKit/537.36 (KHTML, like Gecko) Chrome/116.0.5845.931 YaBrowser/23.9.3.931 Yowser/2.5 Safari/537.36" etag="A_ACJhXGygtINamC6k5i" version="22.0.8" type="device">
  <diagram name="Страница — 1" id="oDHxrBHhs_IFjUu4i5DI">
    <mxGraphModel dx="1951" dy="674" grid="1" gridSize="10" guides="1" tooltips="1" connect="1" arrows="1" fold="1" page="1" pageScale="1" pageWidth="827" pageHeight="1169" math="0" shadow="0">
      <root>
        <mxCell id="0" />
        <mxCell id="1" parent="0" />
        <mxCell id="jiB-2M3dtNrxs1v14rMr-1" value="Группы продукции&lt;br&gt;dataset" style="ellipse;whiteSpace=wrap;html=1;aspect=fixed;" vertex="1" parent="1">
          <mxGeometry x="240" y="120" width="320" height="320" as="geometry" />
        </mxCell>
        <mxCell id="jiB-2M3dtNrxs1v14rMr-2" value="Группы продукции из standarts" style="ellipse;whiteSpace=wrap;html=1;" vertex="1" parent="1">
          <mxGeometry x="150" y="160" width="160" height="160" as="geometry" />
        </mxCell>
        <mxCell id="jiB-2M3dtNrxs1v14rMr-3" value="Группы из&lt;br&gt;standart list" style="ellipse;whiteSpace=wrap;html=1;" vertex="1" parent="1">
          <mxGeometry x="80" y="160" width="100" height="100" as="geometry" />
        </mxCell>
        <mxCell id="jiB-2M3dtNrxs1v14rMr-4" value="" style="endArrow=classic;html=1;rounded=0;exitX=0.5;exitY=1;exitDx=0;exitDy=0;" edge="1" parent="1" source="jiB-2M3dtNrxs1v14rMr-2">
          <mxGeometry width="50" height="50" relative="1" as="geometry">
            <mxPoint x="230" y="370" as="sourcePoint" />
            <mxPoint x="240" y="520" as="targetPoint" />
          </mxGeometry>
        </mxCell>
        <mxCell id="jiB-2M3dtNrxs1v14rMr-5" value="ГОСТ 1&lt;br&gt;ГОСТ 2&lt;br&gt;ГОСТ 3&lt;br&gt;...&lt;br&gt;ГОСТ Н" style="rounded=1;whiteSpace=wrap;html=1;" vertex="1" parent="1">
          <mxGeometry x="140" y="520" width="200" height="80" as="geometry" />
        </mxCell>
        <mxCell id="jiB-2M3dtNrxs1v14rMr-6" value="&lt;font style=&quot;font-size: 25px;&quot;&gt;Задача 1&lt;/font&gt;" style="text;html=1;strokeColor=none;fillColor=none;align=center;verticalAlign=middle;whiteSpace=wrap;rounded=0;" vertex="1" parent="1">
          <mxGeometry x="40" y="640" width="120" height="30" as="geometry" />
        </mxCell>
        <mxCell id="jiB-2M3dtNrxs1v14rMr-9" value="" style="endArrow=none;html=1;rounded=0;exitX=1;exitY=0.5;exitDx=0;exitDy=0;entryX=0;entryY=0.5;entryDx=0;entryDy=0;" edge="1" parent="1" source="jiB-2M3dtNrxs1v14rMr-11" target="jiB-2M3dtNrxs1v14rMr-15">
          <mxGeometry width="50" height="50" relative="1" as="geometry">
            <mxPoint x="556" y="770" as="sourcePoint" />
            <mxPoint x="616" y="725" as="targetPoint" />
          </mxGeometry>
        </mxCell>
        <mxCell id="jiB-2M3dtNrxs1v14rMr-10" value="Группа_стандартов_i" style="swimlane;fontStyle=0;childLayout=stackLayout;horizontal=1;startSize=30;horizontalStack=0;resizeParent=1;resizeParentMax=0;resizeLast=0;collapsible=1;marginBottom=0;whiteSpace=wrap;html=1;" vertex="1" parent="1">
          <mxGeometry x="386" y="680" width="140" height="120" as="geometry">
            <mxRectangle x="80" y="720" width="60" height="30" as="alternateBounds" />
          </mxGeometry>
        </mxCell>
        <mxCell id="jiB-2M3dtNrxs1v14rMr-11" value="Item 1" style="text;strokeColor=none;fillColor=none;align=left;verticalAlign=middle;spacingLeft=4;spacingRight=4;overflow=hidden;points=[[0,0.5],[1,0.5]];portConstraint=eastwest;rotatable=0;whiteSpace=wrap;html=1;" vertex="1" parent="jiB-2M3dtNrxs1v14rMr-10">
          <mxGeometry y="30" width="140" height="30" as="geometry" />
        </mxCell>
        <mxCell id="jiB-2M3dtNrxs1v14rMr-12" value="Item 2" style="text;strokeColor=none;fillColor=none;align=left;verticalAlign=middle;spacingLeft=4;spacingRight=4;overflow=hidden;points=[[0,0.5],[1,0.5]];portConstraint=eastwest;rotatable=0;whiteSpace=wrap;html=1;" vertex="1" parent="jiB-2M3dtNrxs1v14rMr-10">
          <mxGeometry y="60" width="140" height="30" as="geometry" />
        </mxCell>
        <mxCell id="jiB-2M3dtNrxs1v14rMr-13" value="Item 3" style="text;strokeColor=none;fillColor=none;align=left;verticalAlign=middle;spacingLeft=4;spacingRight=4;overflow=hidden;points=[[0,0.5],[1,0.5]];portConstraint=eastwest;rotatable=0;whiteSpace=wrap;html=1;" vertex="1" parent="jiB-2M3dtNrxs1v14rMr-10">
          <mxGeometry y="90" width="140" height="30" as="geometry" />
        </mxCell>
        <mxCell id="jiB-2M3dtNrxs1v14rMr-14" value="Оборудования_i" style="swimlane;fontStyle=0;childLayout=stackLayout;horizontal=1;startSize=30;horizontalStack=0;resizeParent=1;resizeParentMax=0;resizeLast=0;collapsible=1;marginBottom=0;whiteSpace=wrap;html=1;fillColor=#fff2cc;strokeColor=#d6b656;" vertex="1" parent="1">
          <mxGeometry x="626" y="680" width="140" height="120" as="geometry" />
        </mxCell>
        <mxCell id="jiB-2M3dtNrxs1v14rMr-15" value="Оборудование 1&lt;span style=&quot;white-space: pre;&quot;&gt;&#x9;&lt;/span&gt;" style="text;strokeColor=#d6b656;fillColor=#fff2cc;align=left;verticalAlign=middle;spacingLeft=4;spacingRight=4;overflow=hidden;points=[[0,0.5],[1,0.5]];portConstraint=eastwest;rotatable=0;whiteSpace=wrap;html=1;" vertex="1" parent="jiB-2M3dtNrxs1v14rMr-14">
          <mxGeometry y="30" width="140" height="30" as="geometry" />
        </mxCell>
        <mxCell id="jiB-2M3dtNrxs1v14rMr-16" value="Оборудование 2" style="text;strokeColor=#d6b656;fillColor=#fff2cc;align=left;verticalAlign=middle;spacingLeft=4;spacingRight=4;overflow=hidden;points=[[0,0.5],[1,0.5]];portConstraint=eastwest;rotatable=0;whiteSpace=wrap;html=1;" vertex="1" parent="jiB-2M3dtNrxs1v14rMr-14">
          <mxGeometry y="60" width="140" height="30" as="geometry" />
        </mxCell>
        <mxCell id="jiB-2M3dtNrxs1v14rMr-17" value="Оборудование 3" style="text;strokeColor=#d6b656;fillColor=#fff2cc;align=left;verticalAlign=middle;spacingLeft=4;spacingRight=4;overflow=hidden;points=[[0,0.5],[1,0.5]];portConstraint=eastwest;rotatable=0;whiteSpace=wrap;html=1;" vertex="1" parent="jiB-2M3dtNrxs1v14rMr-14">
          <mxGeometry y="90" width="140" height="30" as="geometry" />
        </mxCell>
        <mxCell id="jiB-2M3dtNrxs1v14rMr-18" value="ГОСТ 1 &lt;br&gt;ГОСТ 2 &lt;br&gt;ГОСТ 3" style="shape=process;whiteSpace=wrap;html=1;backgroundOutline=1;" vertex="1" parent="1">
          <mxGeometry x="40" y="695" width="290" height="60" as="geometry" />
        </mxCell>
        <mxCell id="jiB-2M3dtNrxs1v14rMr-19" value="" style="endArrow=none;html=1;rounded=0;entryX=0;entryY=0.5;entryDx=0;entryDy=0;" edge="1" parent="1">
          <mxGeometry width="50" height="50" relative="1" as="geometry">
            <mxPoint x="330" y="725" as="sourcePoint" />
            <mxPoint x="386" y="724.58" as="targetPoint" />
          </mxGeometry>
        </mxCell>
        <mxCell id="jiB-2M3dtNrxs1v14rMr-20" value="Оборудования_i" style="swimlane;fontStyle=0;childLayout=stackLayout;horizontal=1;startSize=30;horizontalStack=0;resizeParent=1;resizeParentMax=0;resizeLast=0;collapsible=1;marginBottom=0;whiteSpace=wrap;html=1;fillColor=#d5e8d4;strokeColor=#82b366;" vertex="1" parent="1">
          <mxGeometry x="800" y="680" width="140" height="180" as="geometry" />
        </mxCell>
        <mxCell id="jiB-2M3dtNrxs1v14rMr-21" value="Оборудование 1&lt;span style=&quot;white-space: pre;&quot;&gt;&#x9;&lt;/span&gt;" style="text;strokeColor=#82b366;fillColor=#d5e8d4;align=left;verticalAlign=middle;spacingLeft=4;spacingRight=4;overflow=hidden;points=[[0,0.5],[1,0.5]];portConstraint=eastwest;rotatable=0;whiteSpace=wrap;html=1;" vertex="1" parent="jiB-2M3dtNrxs1v14rMr-20">
          <mxGeometry y="30" width="140" height="30" as="geometry" />
        </mxCell>
        <mxCell id="jiB-2M3dtNrxs1v14rMr-22" value="Оборудование 2" style="text;strokeColor=#82b366;fillColor=#d5e8d4;align=left;verticalAlign=middle;spacingLeft=4;spacingRight=4;overflow=hidden;points=[[0,0.5],[1,0.5]];portConstraint=eastwest;rotatable=0;whiteSpace=wrap;html=1;" vertex="1" parent="jiB-2M3dtNrxs1v14rMr-20">
          <mxGeometry y="60" width="140" height="30" as="geometry" />
        </mxCell>
        <mxCell id="jiB-2M3dtNrxs1v14rMr-23" value="Оборудование 3 всп" style="text;strokeColor=#82b366;fillColor=#d5e8d4;align=left;verticalAlign=middle;spacingLeft=4;spacingRight=4;overflow=hidden;points=[[0,0.5],[1,0.5]];portConstraint=eastwest;rotatable=0;whiteSpace=wrap;html=1;" vertex="1" parent="jiB-2M3dtNrxs1v14rMr-20">
          <mxGeometry y="90" width="140" height="30" as="geometry" />
        </mxCell>
        <mxCell id="jiB-2M3dtNrxs1v14rMr-24" value="Оборудование 4 всп" style="text;strokeColor=#82b366;fillColor=#d5e8d4;align=left;verticalAlign=middle;spacingLeft=4;spacingRight=4;overflow=hidden;points=[[0,0.5],[1,0.5]];portConstraint=eastwest;rotatable=0;whiteSpace=wrap;html=1;" vertex="1" parent="jiB-2M3dtNrxs1v14rMr-20">
          <mxGeometry y="120" width="140" height="30" as="geometry" />
        </mxCell>
        <mxCell id="jiB-2M3dtNrxs1v14rMr-25" value="Оборудование 5 всп" style="text;strokeColor=#82b366;fillColor=#d5e8d4;align=left;verticalAlign=middle;spacingLeft=4;spacingRight=4;overflow=hidden;points=[[0,0.5],[1,0.5]];portConstraint=eastwest;rotatable=0;whiteSpace=wrap;html=1;" vertex="1" parent="jiB-2M3dtNrxs1v14rMr-20">
          <mxGeometry y="150" width="140" height="30" as="geometry" />
        </mxCell>
        <mxCell id="jiB-2M3dtNrxs1v14rMr-26" value="Оборудования_i" style="swimlane;fontStyle=0;childLayout=stackLayout;horizontal=1;startSize=30;horizontalStack=0;resizeParent=1;resizeParentMax=0;resizeLast=0;collapsible=1;marginBottom=0;whiteSpace=wrap;html=1;fillColor=#d5e8d4;strokeColor=#82b366;" vertex="1" parent="1">
          <mxGeometry x="960" y="680" width="140" height="90" as="geometry" />
        </mxCell>
        <mxCell id="jiB-2M3dtNrxs1v14rMr-27" value="Оборудование 1&lt;span style=&quot;white-space: pre;&quot;&gt;&#x9;&lt;/span&gt;" style="text;strokeColor=#82b366;fillColor=#d5e8d4;align=left;verticalAlign=middle;spacingLeft=4;spacingRight=4;overflow=hidden;points=[[0,0.5],[1,0.5]];portConstraint=eastwest;rotatable=0;whiteSpace=wrap;html=1;" vertex="1" parent="jiB-2M3dtNrxs1v14rMr-26">
          <mxGeometry y="30" width="140" height="30" as="geometry" />
        </mxCell>
        <mxCell id="jiB-2M3dtNrxs1v14rMr-31" value="Оборудование 2" style="text;strokeColor=#82b366;fillColor=#d5e8d4;align=left;verticalAlign=middle;spacingLeft=4;spacingRight=4;overflow=hidden;points=[[0,0.5],[1,0.5]];portConstraint=eastwest;rotatable=0;whiteSpace=wrap;html=1;" vertex="1" parent="jiB-2M3dtNrxs1v14rMr-26">
          <mxGeometry y="60" width="140" height="30" as="geometry" />
        </mxCell>
        <mxCell id="jiB-2M3dtNrxs1v14rMr-32" value="" style="endArrow=none;html=1;rounded=0;exitX=1;exitY=0.5;exitDx=0;exitDy=0;entryX=0;entryY=0.5;entryDx=0;entryDy=0;" edge="1" parent="1" target="jiB-2M3dtNrxs1v14rMr-21">
          <mxGeometry width="50" height="50" relative="1" as="geometry">
            <mxPoint x="766" y="724.58" as="sourcePoint" />
            <mxPoint x="866" y="724.58" as="targetPoint" />
          </mxGeometry>
        </mxCell>
        <mxCell id="jiB-2M3dtNrxs1v14rMr-33" value="" style="endArrow=none;html=1;rounded=0;exitX=1;exitY=0.5;exitDx=0;exitDy=0;" edge="1" parent="1">
          <mxGeometry width="50" height="50" relative="1" as="geometry">
            <mxPoint x="940" y="724.58" as="sourcePoint" />
            <mxPoint x="960" y="725" as="targetPoint" />
          </mxGeometry>
        </mxCell>
        <mxCell id="jiB-2M3dtNrxs1v14rMr-34" value="&lt;font style=&quot;font-size: 25px;&quot;&gt;Идея 1&lt;/font&gt;" style="text;html=1;strokeColor=none;fillColor=none;align=center;verticalAlign=middle;whiteSpace=wrap;rounded=0;" vertex="1" parent="1">
          <mxGeometry x="50" y="900" width="120" height="30" as="geometry" />
        </mxCell>
        <mxCell id="jiB-2M3dtNrxs1v14rMr-35" value="ГОСТ 1.docx &lt;br&gt;ГОСТ 2.docx&lt;br&gt;ГОСТ 3.docx" style="shape=process;whiteSpace=wrap;html=1;backgroundOutline=1;" vertex="1" parent="1">
          <mxGeometry x="40" y="940" width="290" height="60" as="geometry" />
        </mxCell>
        <mxCell id="jiB-2M3dtNrxs1v14rMr-36" value="" style="endArrow=classic;html=1;rounded=0;exitX=1;exitY=0.5;exitDx=0;exitDy=0;" edge="1" parent="1" source="jiB-2M3dtNrxs1v14rMr-35">
          <mxGeometry width="50" height="50" relative="1" as="geometry">
            <mxPoint x="380" y="990" as="sourcePoint" />
            <mxPoint x="420" y="970" as="targetPoint" />
          </mxGeometry>
        </mxCell>
        <mxCell id="jiB-2M3dtNrxs1v14rMr-37" value="f.read()&lt;br&gt;sort(Ненужная инфа, &lt;br&gt;опредения)" style="shape=parallelogram;perimeter=parallelogramPerimeter;whiteSpace=wrap;html=1;fixedSize=1;" vertex="1" parent="1">
          <mxGeometry x="413" y="940" width="237" height="60" as="geometry" />
        </mxCell>
        <mxCell id="jiB-2M3dtNrxs1v14rMr-38" value="&lt;font style=&quot;font-size: 20px;&quot;&gt;Text&lt;/font&gt;" style="text;html=1;strokeColor=none;fillColor=none;align=center;verticalAlign=middle;whiteSpace=wrap;rounded=0;" vertex="1" parent="1">
          <mxGeometry x="501.5" y="905" width="60" height="30" as="geometry" />
        </mxCell>
        <mxCell id="jiB-2M3dtNrxs1v14rMr-39" value="json {&lt;br&gt;&quot;основное оборудование&quot;: [об1, об2, об3]&lt;br&gt;&quot;вспомогательное (опциональное)&quot;: [об2.1, об4.1] может не быть!&lt;br&gt;}" style="shape=hexagon;perimeter=hexagonPerimeter2;whiteSpace=wrap;html=1;fixedSize=1;size=190;" vertex="1" parent="1">
          <mxGeometry x="20" y="1030" width="640" height="90" as="geometry" />
        </mxCell>
        <mxCell id="jiB-2M3dtNrxs1v14rMr-40" value="" style="shape=curlyBracket;whiteSpace=wrap;html=1;rounded=1;labelPosition=left;verticalLabelPosition=middle;align=right;verticalAlign=middle;" vertex="1" parent="1">
          <mxGeometry x="-30" y="890" width="20" height="280" as="geometry" />
        </mxCell>
        <mxCell id="jiB-2M3dtNrxs1v14rMr-41" value="" style="line;strokeWidth=2;html=1;" vertex="1" parent="1">
          <mxGeometry x="-70" y="1025" width="50" height="10" as="geometry" />
        </mxCell>
        <mxCell id="jiB-2M3dtNrxs1v14rMr-42" value="Самодельный датасет&lt;br&gt;Работаем по &lt;br&gt;назначенным людям" style="text;strokeColor=none;fillColor=none;html=1;fontSize=24;fontStyle=1;verticalAlign=middle;align=center;" vertex="1" parent="1">
          <mxGeometry x="-270" y="900" width="100" height="250" as="geometry" />
        </mxCell>
        <mxCell id="jiB-2M3dtNrxs1v14rMr-43" value="X" style="text;strokeColor=none;fillColor=none;html=1;fontSize=24;fontStyle=1;verticalAlign=middle;align=center;" vertex="1" parent="1">
          <mxGeometry x="700" y="950" width="100" height="40" as="geometry" />
        </mxCell>
        <mxCell id="jiB-2M3dtNrxs1v14rMr-44" value="Y" style="text;strokeColor=none;fillColor=none;html=1;fontSize=24;fontStyle=1;verticalAlign=middle;align=center;" vertex="1" parent="1">
          <mxGeometry x="700" y="1050" width="100" height="40" as="geometry" />
        </mxCell>
        <mxCell id="jiB-2M3dtNrxs1v14rMr-45" value="" style="shape=curlyBracket;whiteSpace=wrap;html=1;rounded=1;labelPosition=left;verticalLabelPosition=middle;align=right;verticalAlign=middle;" vertex="1" parent="1">
          <mxGeometry x="780" y="927.5" width="14.17" height="85" as="geometry" />
        </mxCell>
        <mxCell id="jiB-2M3dtNrxs1v14rMr-46" value="X_train" style="text;strokeColor=none;fillColor=none;html=1;fontSize=24;fontStyle=1;verticalAlign=middle;align=center;" vertex="1" parent="1">
          <mxGeometry x="790" y="920" width="100" height="40" as="geometry" />
        </mxCell>
        <mxCell id="jiB-2M3dtNrxs1v14rMr-47" value="X_test" style="text;strokeColor=none;fillColor=none;html=1;fontSize=24;fontStyle=1;verticalAlign=middle;align=center;" vertex="1" parent="1">
          <mxGeometry x="790" y="970" width="100" height="40" as="geometry" />
        </mxCell>
        <mxCell id="jiB-2M3dtNrxs1v14rMr-48" value="" style="shape=curlyBracket;whiteSpace=wrap;html=1;rounded=1;labelPosition=left;verticalLabelPosition=middle;align=right;verticalAlign=middle;" vertex="1" parent="1">
          <mxGeometry x="780" y="1042.5" width="14.17" height="85" as="geometry" />
        </mxCell>
        <mxCell id="jiB-2M3dtNrxs1v14rMr-49" value="Y_train" style="text;strokeColor=none;fillColor=none;html=1;fontSize=24;fontStyle=1;verticalAlign=middle;align=center;" vertex="1" parent="1">
          <mxGeometry x="790" y="1035" width="100" height="40" as="geometry" />
        </mxCell>
        <mxCell id="jiB-2M3dtNrxs1v14rMr-50" value="Y_test" style="text;strokeColor=none;fillColor=none;html=1;fontSize=24;fontStyle=1;verticalAlign=middle;align=center;" vertex="1" parent="1">
          <mxGeometry x="790" y="1085" width="100" height="40" as="geometry" />
        </mxCell>
        <mxCell id="jiB-2M3dtNrxs1v14rMr-51" value="" style="line;strokeWidth=2;html=1;" vertex="1" parent="1">
          <mxGeometry x="910" y="935" width="160" height="10" as="geometry" />
        </mxCell>
        <mxCell id="jiB-2M3dtNrxs1v14rMr-52" value="" style="line;strokeWidth=2;html=1;" vertex="1" parent="1">
          <mxGeometry x="900" y="1050" width="160" height="10" as="geometry" />
        </mxCell>
        <mxCell id="jiB-2M3dtNrxs1v14rMr-53" value="&lt;span style=&quot;font-size: 21px; background-color: rgb(255, 217, 102);&quot;&gt;&lt;b&gt;БЯМ&lt;/b&gt;&lt;/span&gt;" style="rounded=1;whiteSpace=wrap;html=1;strokeWidth=2;fillWeight=4;hachureGap=8;hachureAngle=45;fillColor=#1ba1e2;sketch=1;" vertex="1" parent="1">
          <mxGeometry x="1090" y="910" width="310" height="180" as="geometry" />
        </mxCell>
        <mxCell id="jiB-2M3dtNrxs1v14rMr-54" value="" style="line;strokeWidth=2;html=1;" vertex="1" parent="1">
          <mxGeometry x="1440" y="990" width="160" height="10" as="geometry" />
        </mxCell>
        <mxCell id="jiB-2M3dtNrxs1v14rMr-55" value="Оценка качества, со всеми метриками&lt;br&gt;&lt;br&gt;Метрики:&amp;nbsp;&lt;br&gt;Количество полных попаданий&lt;br&gt;Количество частичных попаданий (80% от эталона)&lt;br&gt;Количество попаданий по обязательным (!)&lt;br&gt;Количество попаданий по опциональным (+-)" style="text;strokeColor=none;fillColor=none;html=1;fontSize=24;fontStyle=1;verticalAlign=middle;align=center;" vertex="1" parent="1">
          <mxGeometry x="1820" y="980" width="100" height="40" as="geometry" />
        </mxCell>
        <mxCell id="jiB-2M3dtNrxs1v14rMr-56" value="" style="endArrow=classic;html=1;rounded=0;" edge="1" parent="1">
          <mxGeometry width="50" height="50" relative="1" as="geometry">
            <mxPoint x="2200" y="1010" as="sourcePoint" />
            <mxPoint x="2310" y="1010" as="targetPoint" />
          </mxGeometry>
        </mxCell>
        <mxCell id="jiB-2M3dtNrxs1v14rMr-57" value="&lt;font style=&quot;font-size: 82px;&quot;&gt;API&lt;/font&gt;" style="shape=dataStorage;whiteSpace=wrap;html=1;fixedSize=1;" vertex="1" parent="1">
          <mxGeometry x="2330" y="850" width="387.5" height="310" as="geometry" />
        </mxCell>
        <mxCell id="jiB-2M3dtNrxs1v14rMr-58" value="" style="endArrow=classic;html=1;rounded=0;entryX=0.369;entryY=0;entryDx=0;entryDy=0;entryPerimeter=0;" edge="1" parent="1" target="jiB-2M3dtNrxs1v14rMr-57">
          <mxGeometry width="50" height="50" relative="1" as="geometry">
            <mxPoint x="2470" y="710" as="sourcePoint" />
            <mxPoint x="2470" y="840" as="targetPoint" />
          </mxGeometry>
        </mxCell>
        <mxCell id="jiB-2M3dtNrxs1v14rMr-59" value="&lt;font style=&quot;font-size: 16px;&quot;&gt;Файл ГОСТА .docx&lt;/font&gt;" style="shape=parallelogram;perimeter=parallelogramPerimeter;whiteSpace=wrap;html=1;fixedSize=1;fillColor=#d5e8d4;strokeColor=#82b366;" vertex="1" parent="1">
          <mxGeometry x="2360" y="550" width="220" height="160" as="geometry" />
        </mxCell>
        <mxCell id="jiB-2M3dtNrxs1v14rMr-60" value="" style="shape=flexArrow;endArrow=classic;html=1;rounded=0;exitX=0.356;exitY=1.003;exitDx=0;exitDy=0;exitPerimeter=0;" edge="1" parent="1" source="jiB-2M3dtNrxs1v14rMr-57">
          <mxGeometry width="50" height="50" relative="1" as="geometry">
            <mxPoint x="2470" y="1170" as="sourcePoint" />
            <mxPoint x="2470" y="1300" as="targetPoint" />
          </mxGeometry>
        </mxCell>
        <mxCell id="jiB-2M3dtNrxs1v14rMr-61" value="json {&lt;br&gt;&quot;основное оборудование&quot;: [об1, об2, об3]&lt;br&gt;&quot;вспомогательное (опциональное)&quot;: [об2.1, об4.1]&lt;br&gt;}" style="shape=hexagon;perimeter=hexagonPerimeter2;whiteSpace=wrap;html=1;fixedSize=1;" vertex="1" parent="1">
          <mxGeometry x="2280" y="1300" width="380" height="120" as="geometry" />
        </mxCell>
        <mxCell id="jiB-2M3dtNrxs1v14rMr-63" value="&lt;font style=&quot;font-size: 17px;&quot;&gt;Database&lt;/font&gt;" style="swimlane;fontStyle=0;childLayout=stackLayout;horizontal=1;startSize=30;horizontalStack=0;resizeParent=1;resizeParentMax=0;resizeLast=0;collapsible=1;marginBottom=0;whiteSpace=wrap;html=1;" vertex="1" parent="1">
          <mxGeometry x="-80" y="1480" width="440" height="390" as="geometry" />
        </mxCell>
        <mxCell id="jiB-2M3dtNrxs1v14rMr-67" value="json {&lt;br&gt;&quot;основное оборудование&quot;: [об1, об2, об3]&lt;br&gt;&quot;вспомогательное (опциональное)&quot;: [об2.1, об4.1]&lt;br&gt;}" style="shape=hexagon;perimeter=hexagonPerimeter2;whiteSpace=wrap;html=1;fixedSize=1;" vertex="1" parent="jiB-2M3dtNrxs1v14rMr-63">
          <mxGeometry y="30" width="440" height="120" as="geometry" />
        </mxCell>
        <mxCell id="jiB-2M3dtNrxs1v14rMr-68" value="json {&lt;br&gt;&quot;основное оборудование&quot;: [об1, об2, об3]&lt;br&gt;&quot;вспомогательное (опциональное)&quot;: [об2.1, об4.1]&lt;br&gt;}" style="shape=hexagon;perimeter=hexagonPerimeter2;whiteSpace=wrap;html=1;fixedSize=1;" vertex="1" parent="jiB-2M3dtNrxs1v14rMr-63">
          <mxGeometry y="150" width="440" height="120" as="geometry" />
        </mxCell>
        <mxCell id="jiB-2M3dtNrxs1v14rMr-69" value="json {&lt;br&gt;&quot;основное оборудование&quot;: [об1, об2, об3]&lt;br&gt;&quot;вспомогательное (опциональное)&quot;: [об2.1, об4.1]&lt;br&gt;}" style="shape=hexagon;perimeter=hexagonPerimeter2;whiteSpace=wrap;html=1;fixedSize=1;" vertex="1" parent="jiB-2M3dtNrxs1v14rMr-63">
          <mxGeometry y="270" width="440" height="120" as="geometry" />
        </mxCell>
        <mxCell id="jiB-2M3dtNrxs1v14rMr-70" value="&lt;span style=&quot;font-size: 25px;&quot;&gt;Реализация 1&lt;/span&gt;" style="text;html=1;strokeColor=none;fillColor=none;align=center;verticalAlign=middle;whiteSpace=wrap;rounded=0;" vertex="1" parent="1">
          <mxGeometry x="-10" y="1430" width="240" height="30" as="geometry" />
        </mxCell>
        <mxCell id="jiB-2M3dtNrxs1v14rMr-72" value="Frontend" style="whiteSpace=wrap;html=1;aspect=fixed;" vertex="1" parent="1">
          <mxGeometry x="560" y="1520" width="160" height="160" as="geometry" />
        </mxCell>
        <mxCell id="jiB-2M3dtNrxs1v14rMr-73" value="" style="shape=flexArrow;endArrow=classic;html=1;rounded=0;entryX=0.334;entryY=-0.023;entryDx=0;entryDy=0;entryPerimeter=0;" edge="1" parent="1" target="jiB-2M3dtNrxs1v14rMr-72">
          <mxGeometry width="50" height="50" relative="1" as="geometry">
            <mxPoint x="613" y="1420" as="sourcePoint" />
            <mxPoint x="660" y="1370" as="targetPoint" />
          </mxGeometry>
        </mxCell>
        <mxCell id="jiB-2M3dtNrxs1v14rMr-74" value="Группа продукции" style="text;html=1;strokeColor=none;fillColor=none;align=center;verticalAlign=middle;whiteSpace=wrap;rounded=0;" vertex="1" parent="1">
          <mxGeometry x="526" y="1340" width="184" height="70" as="geometry" />
        </mxCell>
        <mxCell id="jiB-2M3dtNrxs1v14rMr-75" value="Vertical Container" style="swimlane;whiteSpace=wrap;html=1;" vertex="1" parent="1">
          <mxGeometry x="510" y="1760" width="1290" height="300" as="geometry" />
        </mxCell>
        <mxCell id="jiB-2M3dtNrxs1v14rMr-77" value="Группа продукции" style="text;html=1;strokeColor=none;fillColor=none;align=center;verticalAlign=middle;whiteSpace=wrap;rounded=0;" vertex="1" parent="jiB-2M3dtNrxs1v14rMr-75">
          <mxGeometry y="90" width="140" height="20" as="geometry" />
        </mxCell>
        <mxCell id="jiB-2M3dtNrxs1v14rMr-78" value="Госты&amp;nbsp;" style="swimlane;fontStyle=0;childLayout=stackLayout;horizontal=1;startSize=30;horizontalStack=0;resizeParent=1;resizeParentMax=0;resizeLast=0;collapsible=1;marginBottom=0;whiteSpace=wrap;html=1;" vertex="1" parent="jiB-2M3dtNrxs1v14rMr-75">
          <mxGeometry x="220" y="40" width="140" height="120" as="geometry" />
        </mxCell>
        <mxCell id="jiB-2M3dtNrxs1v14rMr-79" value="Item 1" style="text;strokeColor=none;fillColor=none;align=left;verticalAlign=middle;spacingLeft=4;spacingRight=4;overflow=hidden;points=[[0,0.5],[1,0.5]];portConstraint=eastwest;rotatable=0;whiteSpace=wrap;html=1;" vertex="1" parent="jiB-2M3dtNrxs1v14rMr-78">
          <mxGeometry y="30" width="140" height="30" as="geometry" />
        </mxCell>
        <mxCell id="jiB-2M3dtNrxs1v14rMr-80" value="Item 2" style="text;strokeColor=none;fillColor=none;align=left;verticalAlign=middle;spacingLeft=4;spacingRight=4;overflow=hidden;points=[[0,0.5],[1,0.5]];portConstraint=eastwest;rotatable=0;whiteSpace=wrap;html=1;" vertex="1" parent="jiB-2M3dtNrxs1v14rMr-78">
          <mxGeometry y="60" width="140" height="30" as="geometry" />
        </mxCell>
        <mxCell id="jiB-2M3dtNrxs1v14rMr-81" value="Item 3" style="text;strokeColor=none;fillColor=none;align=left;verticalAlign=middle;spacingLeft=4;spacingRight=4;overflow=hidden;points=[[0,0.5],[1,0.5]];portConstraint=eastwest;rotatable=0;whiteSpace=wrap;html=1;" vertex="1" parent="jiB-2M3dtNrxs1v14rMr-78">
          <mxGeometry y="90" width="140" height="30" as="geometry" />
        </mxCell>
        <mxCell id="jiB-2M3dtNrxs1v14rMr-82" value="" style="shape=flexArrow;endArrow=classic;html=1;rounded=0;entryX=0.004;entryY=-0.092;entryDx=0;entryDy=0;entryPerimeter=0;" edge="1" parent="jiB-2M3dtNrxs1v14rMr-75" source="jiB-2M3dtNrxs1v14rMr-77" target="jiB-2M3dtNrxs1v14rMr-80">
          <mxGeometry width="50" height="50" relative="1" as="geometry">
            <mxPoint x="140" y="110" as="sourcePoint" />
            <mxPoint x="190" y="60" as="targetPoint" />
          </mxGeometry>
        </mxCell>
        <mxCell id="jiB-2M3dtNrxs1v14rMr-83" value="" style="shape=image;html=1;verticalLabelPosition=bottom;verticalAlign=top;imageAspect=1;aspect=fixed;image=img/clipart/Gear_128x128.png" vertex="1" parent="jiB-2M3dtNrxs1v14rMr-75">
          <mxGeometry x="480" y="70" width="52" height="61" as="geometry" />
        </mxCell>
        <mxCell id="jiB-2M3dtNrxs1v14rMr-84" value="" style="shape=flexArrow;endArrow=classic;html=1;rounded=0;entryX=0.004;entryY=-0.092;entryDx=0;entryDy=0;entryPerimeter=0;" edge="1" parent="jiB-2M3dtNrxs1v14rMr-75">
          <mxGeometry width="50" height="50" relative="1" as="geometry">
            <mxPoint x="380" y="101.5" as="sourcePoint" />
            <mxPoint x="461" y="99.5" as="targetPoint" />
          </mxGeometry>
        </mxCell>
        <mxCell id="jiB-2M3dtNrxs1v14rMr-85" value="API" style="text;html=1;strokeColor=none;fillColor=none;align=center;verticalAlign=middle;whiteSpace=wrap;rounded=0;" vertex="1" parent="jiB-2M3dtNrxs1v14rMr-75">
          <mxGeometry x="440" y="40" width="140" height="20" as="geometry" />
        </mxCell>
        <mxCell id="jiB-2M3dtNrxs1v14rMr-86" value="" style="shape=flexArrow;endArrow=classic;html=1;rounded=0;" edge="1" parent="jiB-2M3dtNrxs1v14rMr-75">
          <mxGeometry width="50" height="50" relative="1" as="geometry">
            <mxPoint x="560" y="100" as="sourcePoint" />
            <mxPoint x="620" y="100" as="targetPoint" />
          </mxGeometry>
        </mxCell>
        <mxCell id="jiB-2M3dtNrxs1v14rMr-87" value="json {&lt;br&gt;&quot;основное оборудование&quot;: [об1, об2, об3]&lt;br&gt;&quot;вспомогательное (опциональное)&quot;: [об2.1, об4.1]&lt;br&gt;}" style="shape=hexagon;perimeter=hexagonPerimeter2;whiteSpace=wrap;html=1;fixedSize=1;" vertex="1" parent="jiB-2M3dtNrxs1v14rMr-75">
          <mxGeometry x="690" y="40" width="350" height="60" as="geometry" />
        </mxCell>
        <mxCell id="jiB-2M3dtNrxs1v14rMr-88" value="json {&lt;br&gt;&quot;основное оборудование&quot;: [об1, об2, об3]&lt;br&gt;&quot;вспомогательное (опциональное)&quot;: [об2.1, об4.1]&lt;br&gt;}" style="shape=hexagon;perimeter=hexagonPerimeter2;whiteSpace=wrap;html=1;fixedSize=1;" vertex="1" parent="jiB-2M3dtNrxs1v14rMr-75">
          <mxGeometry x="690" y="100" width="350" height="60" as="geometry" />
        </mxCell>
        <mxCell id="jiB-2M3dtNrxs1v14rMr-89" value="json {&lt;br&gt;&quot;основное оборудование&quot;: [об1, об2, об3]&lt;br&gt;&quot;вспомогательное (опциональное)&quot;: [об2.1, об4.1]&lt;br&gt;}" style="shape=hexagon;perimeter=hexagonPerimeter2;whiteSpace=wrap;html=1;fixedSize=1;" vertex="1" parent="jiB-2M3dtNrxs1v14rMr-75">
          <mxGeometry x="690" y="160" width="350" height="60" as="geometry" />
        </mxCell>
        <mxCell id="jiB-2M3dtNrxs1v14rMr-90" value="" style="shape=curlyBracket;whiteSpace=wrap;html=1;rounded=1;flipH=1;labelPosition=right;verticalLabelPosition=middle;align=left;verticalAlign=middle;" vertex="1" parent="jiB-2M3dtNrxs1v14rMr-75">
          <mxGeometry x="1090" y="41" width="20" height="179" as="geometry" />
        </mxCell>
        <mxCell id="jiB-2M3dtNrxs1v14rMr-91" value="" style="edgeStyle=segmentEdgeStyle;endArrow=classic;html=1;curved=0;rounded=0;endSize=8;startSize=8;" edge="1" parent="jiB-2M3dtNrxs1v14rMr-75">
          <mxGeometry width="50" height="50" relative="1" as="geometry">
            <mxPoint x="1140" y="130" as="sourcePoint" />
            <mxPoint x="1230" y="-220" as="targetPoint" />
          </mxGeometry>
        </mxCell>
        <mxCell id="jiB-2M3dtNrxs1v14rMr-76" value="" style="shape=flexArrow;endArrow=classic;html=1;rounded=0;" edge="1" parent="1">
          <mxGeometry width="50" height="50" relative="1" as="geometry">
            <mxPoint x="640" y="1690" as="sourcePoint" />
            <mxPoint x="640" y="1750" as="targetPoint" />
          </mxGeometry>
        </mxCell>
        <mxCell id="jiB-2M3dtNrxs1v14rMr-94" style="edgeStyle=orthogonalEdgeStyle;rounded=0;orthogonalLoop=1;jettySize=auto;html=1;" edge="1" parent="1" source="jiB-2M3dtNrxs1v14rMr-93" target="jiB-2M3dtNrxs1v14rMr-72">
          <mxGeometry relative="1" as="geometry">
            <Array as="points">
              <mxPoint x="900" y="1500" />
              <mxPoint x="900" y="1600" />
            </Array>
          </mxGeometry>
        </mxCell>
        <mxCell id="jiB-2M3dtNrxs1v14rMr-93" value="RESPONSE" style="shape=ext;double=1;whiteSpace=wrap;html=1;aspect=fixed;" vertex="1" parent="1">
          <mxGeometry x="1700" y="1460" width="80" height="80" as="geometry" />
        </mxCell>
        <mxCell id="jiB-2M3dtNrxs1v14rMr-95" value="&lt;font style=&quot;font-size: 27px; background-color: rgb(15, 255, 31);&quot;&gt;54 ГОСТА&lt;/font&gt;" style="ellipse;whiteSpace=wrap;html=1;strokeWidth=2;fillWeight=2;hachureGap=8;fillStyle=dots;sketch=1;" vertex="1" parent="1">
          <mxGeometry x="-730" y="845" width="360" height="360" as="geometry" />
        </mxCell>
      </root>
    </mxGraphModel>
  </diagram>
</mxfile>
